<svg width="25" height="25" viewBox="0 0 25 25" fill="none" xmlns="http://www.w3.org/2000/svg">
<path d="M12.0874 1.396C12.1937 1.396 12.3002 1.39988 12.4067 1.40283C12.2677 1.75833 12.1816 2.13477 12.1528 2.52197L12.1421 2.80908C12.1407 3.7771 12.494 4.69313 13.1392 5.40479L13.272 5.54443C13.3975 5.66997 13.5307 5.78471 13.6694 5.89014C13.2043 7.29883 13.5006 8.86758 14.4868 10.0181L14.7134 10.2632C15.8787 11.4289 17.5744 11.8052 19.0854 11.3062C19.1432 11.3821 19.2033 11.4567 19.2671 11.5288L19.4321 11.7046C20.1602 12.4331 21.1312 12.8345 22.1616 12.8345H22.1665C22.6556 12.8342 23.1313 12.7416 23.5747 12.5679C23.6597 15.6008 22.5396 18.5798 20.439 20.8022L20.2153 21.0317C15.7299 25.5167 8.43016 25.5171 3.94482 21.0317C-0.470314 16.6165 -0.539679 9.47504 3.73779 4.97412L3.94482 4.76123C6.11254 2.59355 9.06011 1.39603 12.0874 1.396ZM12.8726 17.7827C11.5899 17.7827 10.5465 18.8253 10.5464 20.1079C10.5464 21.3907 11.5898 22.4341 12.8726 22.4341C14.1553 22.434 15.1987 21.3906 15.1987 20.1079C15.1986 18.8254 14.1557 17.7828 12.8726 17.7827ZM4.86865 11.5728C3.58598 11.5728 2.54248 12.6157 2.54248 13.8989C2.54259 15.1816 3.58597 16.2241 4.86865 16.2241C6.15127 16.2241 7.19471 15.1815 7.19482 13.8989C7.19482 12.6162 6.15134 11.5728 4.86865 11.5728ZM13.2212 11.3823C11.9387 11.3825 10.8962 12.4251 10.896 13.7075C10.896 14.9902 11.9386 16.0336 13.2212 16.0337C14.5039 16.0337 15.5474 14.9903 15.5474 13.7075C15.5471 12.425 14.5043 11.3823 13.2212 11.3823ZM8.02979 5.82471C6.74705 5.82472 5.70361 6.86814 5.70361 8.15088C5.70377 9.43349 6.74714 10.4761 8.02979 10.4761C9.31244 10.4761 10.3558 9.4335 10.356 8.15088C10.356 6.86821 9.31304 5.82471 8.02979 5.82471Z" stroke="white"/>
</svg>
