<svg width="512" height="512" viewBox="0 0 512 512" fill="none" xmlns="http://www.w3.org/2000/svg">
<path d="M466.531 56.193C466.5 43.0855 455.96 32.5319 442.855 32.4868L237.148 31.7785C229.632 31.7526 222.503 35.2503 217.887 41.2287L146.025 134.299C145.117 135.475 144.319 136.731 143.64 138.052L84.6882 252.828C82.9194 256.272 82.002 260.083 82.0138 263.939L82.5177 428.826C82.5578 441.923 93.0899 452.465 106.185 452.515L234.852 453.01C237.892 453.021 240.911 452.455 243.751 451.342L451.79 369.75C461.102 366.097 467.244 357.09 467.22 347.12L466.531 56.193Z" fill="url(#paint0_linear_2947_75)"/>
<path d="M37 101.5C37 88.2451 47.7452 77.4999 61 77.4999L254.844 77.5C260.999 77.5 266.918 79.8643 271.379 84.1045L470.535 273.404C475.301 277.935 478 284.223 478 290.8V446C478 459.255 467.255 470 454 470H319.773C315.581 470 311.462 468.902 307.827 466.816L49.0537 318.302C41.5978 314.023 37 306.083 37 297.486V101.5Z" fill="url(#paint1_linear_2947_75)"/>
<rect x="121" y="112.001" width="305" height="305" rx="152.5" fill="white"/>
<circle cx="239.5" cy="225.5" r="15.5" fill="#FFADAC"/>
<circle cx="213.5" cy="272.5" r="15.5" fill="#FFADAC"/>
<circle cx="281.5" cy="271.5" r="15.5" fill="#FFADAC"/>
<circle cx="278.5" cy="322.5" r="15.5" fill="#FFADAC"/>
<path d="M341.508 333.48C362.062 312.926 372.327 284.117 369.627 255.343C365.181 258.312 359.961 259.911 354.494 259.915H354.456C347.156 259.915 340.299 257.078 335.146 251.921C333.522 250.298 332.142 248.528 331.017 246.629C319.522 251.737 305.905 249.322 296.793 240.207C287.681 231.095 285.267 217.482 290.371 205.983C288.472 204.858 286.702 203.478 285.079 201.854C279.915 196.691 277.075 189.819 277.085 182.506C277.092 177.039 278.688 171.819 281.657 167.373C278.629 167.087 275.594 166.948 272.577 166.948C246.907 166.948 221.914 177.101 203.523 195.492C165.477 233.538 165.477 295.438 203.52 333.48C241.562 371.523 303.466 371.519 341.508 333.48ZM336.214 314.941C344.399 314.941 351.054 280.19 351.054 288.372C351.054 279.367 340.822 303.211 332.64 303.211C324.459 303.211 320.817 288.372 314.445 293.171C314.445 299.543 328.033 314.941 336.214 314.941ZM281.793 256.239C289.978 256.239 296.633 262.897 296.633 271.079C296.633 279.26 289.974 285.918 281.793 285.918C273.612 285.918 266.953 279.26 266.953 271.079C266.953 262.897 273.612 256.239 281.793 256.239ZM278.957 308.257C287.141 308.257 293.797 314.915 293.797 323.097C293.797 331.278 287.138 337.937 278.957 337.937C270.775 337.937 264.117 331.278 264.117 323.097C264.117 314.915 270.775 308.257 278.957 308.257ZM239.597 211.071C247.782 211.071 254.437 217.729 254.437 225.911C254.437 234.092 247.778 240.751 239.597 240.751C231.416 240.751 224.757 234.092 224.757 225.911C224.757 217.729 231.416 211.071 239.597 211.071ZM199.063 272.629C199.063 264.444 205.722 257.789 213.903 257.789C222.085 257.789 228.743 264.448 228.743 272.629C228.743 280.81 222.085 287.469 213.903 287.469C205.722 287.469 199.063 280.81 199.063 272.629Z" fill="url(#paint2_linear_2947_75)"/>
<path d="M317.875 272.339C317.874 271.046 318.328 269.834 319.096 268.932C319.81 268.092 320.737 267.585 321.696 267.433L321.889 267.408L321.902 267.406C328.285 266.689 334.57 265.233 340.646 263.066L341.859 262.623L341.862 262.622C347.774 260.407 353.441 257.529 358.769 254.04L358.77 254.041C359.46 253.593 360.231 253.369 361 253.369C361.769 253.369 362.54 253.593 363.23 254.041V254.04C368.225 257.311 373.518 260.044 379.031 262.199L380.138 262.622L380.141 262.623C386.189 264.885 392.454 266.437 398.823 267.252L400.098 267.406L400.111 267.408C401.138 267.519 402.142 268.036 402.904 268.932C403.624 269.778 404.068 270.896 404.12 272.098L404.125 272.339V298.968C404.122 308.124 401.81 317.099 397.446 324.964C393.083 332.828 386.834 339.282 379.37 343.683L363.076 353.281L363.064 353.287C362.418 353.671 361.708 353.863 360.999 353.863C360.29 353.862 359.579 353.671 358.933 353.286L358.926 353.282L358.919 353.278L342.63 343.683C335.166 339.282 328.917 332.828 324.554 324.964C320.326 317.345 318.024 308.683 317.882 299.825L317.875 298.966V272.339Z" fill="url(#paint3_linear_2947_75)" stroke="white" stroke-width="8"/>
<path fill-rule="evenodd" clip-rule="evenodd" d="M361.3 278.589C354.542 278.589 349.064 284.017 349.064 290.713C349.064 297.41 354.542 302.838 361.3 302.838C368.057 302.838 373.536 297.41 373.536 290.713C373.536 284.017 368.057 278.589 361.3 278.589Z" fill="white"/>
<path fill-rule="evenodd" clip-rule="evenodd" d="M353.958 305.262C349.888 305.262 345.975 307.102 343.682 309.871C342.518 311.276 341.7 313.015 341.629 314.943C341.556 316.911 342.273 318.832 343.752 320.508C347.355 324.593 353.109 327.087 361.299 327.087C369.489 327.087 375.243 324.593 378.846 320.508C380.325 318.832 381.042 316.911 380.969 314.943C380.898 313.015 380.08 311.276 378.916 309.871C376.623 307.102 372.71 305.262 368.641 305.262H353.958Z" fill="white"/>
<defs>
<linearGradient id="paint0_linear_2947_75" x1="91.1604" y1="464.133" x2="539.491" y2="176.649" gradientUnits="userSpaceOnUse">
<stop stop-color="#FFC599"/>
<stop offset="0.895" stop-color="#FF6C6C"/>
</linearGradient>
<linearGradient id="paint1_linear_2947_75" x1="624.889" y1="452.759" x2="73.4798" y2="-17.0509" gradientUnits="userSpaceOnUse">
<stop stop-color="#FF7571"/>
<stop offset="1" stop-color="#FFC599"/>
</linearGradient>
<linearGradient id="paint2_linear_2947_75" x1="272.52" y1="166.948" x2="272.52" y2="362.011" gradientUnits="userSpaceOnUse">
<stop stop-color="#FF3D3C"/>
<stop offset="1" stop-color="#FF6C6C"/>
</linearGradient>
<linearGradient id="paint3_linear_2947_75" x1="361" y1="249.369" x2="361" y2="357.863" gradientUnits="userSpaceOnUse">
<stop stop-color="#FF3D3C"/>
<stop offset="1" stop-color="#FF6C6C"/>
</linearGradient>
</defs>
</svg>
